<?xml version="1.0" standalone="no"?><!DOCTYPE svg PUBLIC "-//W3C//DTD SVG 1.1//EN" "http://www.w3.org/Graphics/SVG/1.1/DTD/svg11.dtd"><svg t="1704192694214" class="icon" viewBox="0 0 1024 1024" version="1.1" xmlns="http://www.w3.org/2000/svg" p-id="22643" xmlns:xlink="http://www.w3.org/1999/xlink" width="64" height="64"><path d="M864 800m-112 0a112 112 0 1 0 224 0 112 112 0 1 0-224 0Z" fill="#54FEBD" p-id="22644"></path><path d="M144 80h384v928H144z" fill="#54FEBD" p-id="22645"></path><path d="M80 1024a16 16 0 0 1-16-16V16a16 16 0 0 1 16-16h384a16 16 0 0 1 16 16v384a16 16 0 0 1-32 0V32H96v976a16 16 0 0 1-16 16zM816 1024a16 16 0 0 1-16-16V830.24a16 16 0 0 1 32 0V1008a16 16 0 0 1-16 16z" fill="#1D1B4C" p-id="22646"></path><path d="M432 1024a16 16 0 0 1-16-16V400a16 16 0 0 1 16-16h384a16 16 0 0 1 16 16v273.76a16 16 0 0 1-32 0V416H448v592a16 16 0 0 1-16 16zM176 192a16 16 0 0 1-16-16V144a16 16 0 0 1 32 0v32a16 16 0 0 1-16 16zM272 192a16 16 0 0 1-16-16V144a16 16 0 0 1 32 0v32a16 16 0 0 1-16 16zM368 192a16 16 0 0 1-16-16V144a16 16 0 0 1 32 0v32a16 16 0 0 1-16 16zM176 320a16 16 0 0 1-16-16v-32a16 16 0 0 1 32 0v32a16 16 0 0 1-16 16zM272 320a16 16 0 0 1-16-16v-32a16 16 0 0 1 32 0v32a16 16 0 0 1-16 16zM368 320a16 16 0 0 1-16-16v-32a16 16 0 0 1 32 0v32a16 16 0 0 1-16 16zM176 448a16 16 0 0 1-16-16v-32a16 16 0 0 1 32 0v32a16 16 0 0 1-16 16zM272 448a16 16 0 0 1-16-16v-32a16 16 0 0 1 32 0v32a16 16 0 0 1-16 16zM368 448a16 16 0 0 1-16-16v-32a16 16 0 0 1 32 0v32a16 16 0 0 1-16 16zM176 576a16 16 0 0 1-16-16v-32a16 16 0 0 1 32 0v32a16 16 0 0 1-16 16zM272 576a16 16 0 0 1-16-16v-32a16 16 0 0 1 32 0v32a16 16 0 0 1-16 16zM368 576a16 16 0 0 1-16-16v-32a16 16 0 0 1 32 0v32a16 16 0 0 1-16 16zM176 704a16 16 0 0 1-16-16v-32a16 16 0 0 1 32 0v32a16 16 0 0 1-16 16zM272 704a16 16 0 0 1-16-16v-32a16 16 0 0 1 32 0v32a16 16 0 0 1-16 16zM368 704a16 16 0 0 1-16-16v-32a16 16 0 0 1 32 0v32a16 16 0 0 1-16 16zM176 832a16 16 0 0 1-16-16v-32a16 16 0 0 1 32 0v32a16 16 0 0 1-16 16zM272 832a16 16 0 0 1-16-16v-32a16 16 0 0 1 32 0v32a16 16 0 0 1-16 16zM368 832a16 16 0 0 1-16-16v-32a16 16 0 0 1 32 0v32a16 16 0 0 1-16 16z" fill="#1D1B4C" p-id="22647"></path><path d="M528 576a16 16 0 0 1-16-16v-32a16 16 0 0 1 32 0v32a16 16 0 0 1-16 16zM624 576a16 16 0 0 1-16-16v-32a16 16 0 0 1 32 0v32a16 16 0 0 1-16 16zM720 576a16 16 0 0 1-16-16v-32a16 16 0 0 1 32 0v32a16 16 0 0 1-16 16zM528 704a16 16 0 0 1-16-16v-32a16 16 0 0 1 32 0v32a16 16 0 0 1-16 16zM624 704a16 16 0 0 1-16-16v-32a16 16 0 0 1 32 0v32a16 16 0 0 1-16 16zM720 704a16 16 0 0 1-16-16v-32a16 16 0 0 1 32 0v32a16 16 0 0 1-16 16zM528 832a16 16 0 0 1-16-16v-32a16 16 0 0 1 32 0v32a16 16 0 0 1-16 16zM624 832a16 16 0 0 1-16-16v-32a16 16 0 0 1 32 0v32a16 16 0 0 1-16 16zM720 832a16 16 0 0 1-16-16v-32a16 16 0 0 1 32 0v32a16 16 0 0 1-16 16zM1008 1024H16a16 16 0 0 1 0-32h992a16 16 0 0 1 0 32zM896 880c-70.576 0-128-57.424-128-128s57.424-128 128-128 128 57.424 128 128-57.424 128-128 128z m0-224c-52.944 0-96 43.056-96 96s43.056 96 96 96 96-43.056 96-96-43.056-96-96-96z" fill="#1D1B4C" p-id="22648"></path><path d="M896 1024a16 16 0 0 1-16-16V752a16 16 0 0 1 32 0v256a16 16 0 0 1-16 16z" fill="#1D1B4C" p-id="22649"></path><path d="M896 816c-35.296 0-64-28.704-64-64a16 16 0 0 1 32 0c0 17.648 14.352 32 32 32s32-14.352 32-32a16 16 0 0 1 32 0c0 35.296-28.704 64-64 64zM368 1024a16 16 0 0 1-16-16v-96H192v96a16 16 0 0 1-32 0v-112a16 16 0 0 1 16-16h192a16 16 0 0 1 16 16v112a16 16 0 0 1-16 16zM720 1024a16 16 0 0 1-16-16v-96H544v96a16 16 0 0 1-32 0v-112a16 16 0 0 1 16-16h192a16 16 0 0 1 16 16v112a16 16 0 0 1-16 16z" fill="#1D1B4C" p-id="22650"></path><path d="M272 1024a16 16 0 0 1-16-16v-112a16 16 0 0 1 32 0v112a16 16 0 0 1-16 16zM624 1024a16 16 0 0 1-16-16v-112a16 16 0 0 1 32 0v112a16 16 0 0 1-16 16zM464 96H80a16 16 0 0 1 0-32h384a16 16 0 0 1 0 32zM816 480H432a16 16 0 0 1 0-32h384a16 16 0 0 1 0 32z" fill="#1D1B4C" p-id="22651"></path></svg>