<?xml version="1.0" standalone="no"?><!DOCTYPE svg PUBLIC "-//W3C//DTD SVG 1.1//EN" "http://www.w3.org/Graphics/SVG/1.1/DTD/svg11.dtd"><svg t="1704192560567" class="icon" viewBox="0 0 1024 1024" version="1.1" xmlns="http://www.w3.org/2000/svg" p-id="10100" xmlns:xlink="http://www.w3.org/1999/xlink" width="64" height="64"><path d="M535.118 202.636H488.88v-101.3c0-12.768 10.35-23.118 23.118-23.118 12.768 0 23.118 10.35 23.118 23.118v101.3z" fill="#FFC751" p-id="10101"></path><path d="M488.882 114.676v6.464c0 12.768 10.35 23.118 23.118 23.118 12.768 0 23.118-10.35 23.118-23.118v-6.464c0-12.768-10.35-23.118-23.118-23.118-12.768 0-23.118 10.35-23.118 23.118z" fill="#FFE059" p-id="10102"></path><path d="M123.704 233.75h75.572v75.572H123.704z" fill="#B5B1A4" p-id="10103"></path><path d="M199.524 244.192H123.456c-14.004 0-25.356-11.352-25.356-25.356 0-14.004 11.352-25.356 25.356-25.356h76.068c14.004 0 25.356 11.352 25.356 25.356 0 14.002-11.352 25.356-25.356 25.356z" fill="#E8E4D8" p-id="10104"></path><path d="M824.724 233.75h75.572v75.572h-75.572z" fill="#B5B1A4" p-id="10105"></path><path d="M900.544 244.192h-76.068c-14.004 0-25.356-11.352-25.356-25.356 0-14.004 11.352-25.356 25.356-25.356h76.068c14.004 0 25.356 11.352 25.356 25.356 0 14.002-11.352 25.356-25.356 25.356z" fill="#E8E4D8" p-id="10106"></path><path d="M866.74 193.48h-10.938c-14.004 0-25.356 11.352-25.356 25.356 0 14.004 11.352 25.356 25.356 25.356h10.938c14.004 0 25.356-11.352 25.356-25.356 0-14.004-11.352-25.356-25.356-25.356zM155.762 193.48h-10.938c-14.004 0-25.356 11.352-25.356 25.356 0 14.004 11.352 25.356 25.356 25.356h10.938c14.004 0 25.356-11.352 25.356-25.356 0-14.004-11.352-25.356-25.356-25.356z" fill="#F1EEE0" p-id="10107"></path><path d="M967.438 945.784H56.562c-11.364 0-20.578-9.212-20.578-20.578V380.074h952.032v545.132c0 11.364-9.212 20.578-20.578 20.578z" fill="#B5B1A4" p-id="10108"></path><path d="M988.024 380.082v545.124c0 11.364-9.212 20.578-20.578 20.578H512.35c217.938-52 379.988-248.024 379.988-481.888a497.9 497.9 0 0 0-7.078-83.812h102.764z" fill="#8F8B81" p-id="10109"></path><path d="M988.024 660.104v265.102c0 11.364-9.212 20.578-20.578 20.578H648.41c152.994-36.506 278.436-143.984 339.614-285.68z" fill="#706C64" p-id="10110"></path><path d="M108.538 794.254v-232.3c0-20.036-16.242-36.276-36.276-36.276-20.036 0-36.276 16.242-36.276 36.276v232.3c0 20.036 16.242 36.276 36.276 36.276 20.034 0 36.276-16.242 36.276-36.276z" fill="#D8D4C9" p-id="10111"></path><path d="M108.538 704.802v-90.024c0-20.036-16.242-36.276-36.276-36.276-20.036 0-36.276 16.242-36.276 36.276v90.024c0 20.036 16.242 36.276 36.276 36.276 20.034 0.002 36.276-16.24 36.276-36.276z" fill="#E8E4D8" p-id="10112"></path><path d="M915.466 541.986v88.01c0 11.38-9.218 20.578-20.578 20.578H129.11c-11.358 0-20.578-9.198-20.578-20.578v-88.01c0-11.358 9.218-20.578 20.578-20.578h765.778c11.36 0.002 20.578 9.22 20.578 20.578z" fill="#A9CFFC" p-id="10113"></path><path d="M520.206 521.41H319.27c-3.952 62.166-47.534 113.548-105.75 129.166h306.686z" fill="#7CBAF7" p-id="10114"></path><path d="M915.466 709.386v88.01c0 11.38-9.218 20.578-20.578 20.578H129.11c-11.358 0-20.578-9.198-20.578-20.578v-88.01c0-11.358 9.218-20.578 20.578-20.578h765.778c11.36 0.002 20.578 9.22 20.578 20.578z" fill="#A9CFFC" p-id="10115"></path><path d="M812.556 743.734h-86.888c-15.166 0-27.46-12.294-27.46-27.46s12.294-27.46 27.46-27.46h86.888c15.166 0 27.46 12.294 27.46 27.46s-12.294 27.46-27.46 27.46z" fill="#CBE1FF" p-id="10116"></path><path d="M778.128 688.816h-17.668c-15.166 0-27.46 12.294-27.46 27.46s12.294 27.46 27.46 27.46h17.668c15.166 0 27.46-12.294 27.46-27.46-0.002-15.166-12.296-27.46-27.46-27.46z" fill="#E3F0FF" p-id="10117"></path><path d="M520.206 688.816H319.27c-3.952 62.166-47.534 113.548-105.75 129.166h306.686zM915.466 541.986v88.01c0 11.38-9.218 20.578-20.578 20.578H760.6c58.214-15.618 101.798-67 105.748-129.166h28.542c11.358 0.002 20.576 9.22 20.576 20.578zM915.466 709.386v88.01c0 11.38-9.218 20.578-20.578 20.578H760.6c58.214-15.618 101.798-67.002 105.748-129.166h28.542c11.358 0.002 20.576 9.22 20.576 20.578z" fill="#7CBAF7" p-id="10118"></path><path d="M988.024 858.904v66.302c0 11.364-9.212 20.578-20.578 20.578H56.554c-11.364 0-20.578-9.212-20.578-20.578v-66.302z" fill="#FF993A" p-id="10119"></path><path d="M988.024 858.904v66.302c0 11.364-9.212 20.578-20.578 20.578H648.41c67.618-16.134 129.886-46.136 183.574-86.88z" fill="#F97C15" p-id="10120"></path><path d="M240.238 858.91H112.33c-23.99 0-43.436 19.448-43.436 43.436 0 23.99 19.448 43.436 43.436 43.436h127.908c23.99 0 43.436-19.448 43.436-43.436s-19.446-43.436-43.436-43.436z" fill="#FFAF40" p-id="10121"></path><path d="M179.954 858.91h-31.58c-23.99 0-43.436 19.448-43.436 43.436 0 23.99 19.448 43.436 43.436 43.436h31.58c23.99 0 43.436-19.448 43.436-43.436 0.002-23.988-19.446-43.436-43.436-43.436z" fill="#FFC751" p-id="10122"></path><path d="M1003.41 491.904H20.59c-13.606 0-23.466-12.968-19.828-26.078l39.96-144.042a41.156 41.156 0 0 1 39.658-30.154h863.244a41.156 41.156 0 0 1 39.658 30.154l39.96 144.042c3.634 13.11-6.226 26.078-19.832 26.078z" fill="#229BFF" p-id="10123"></path><path d="M1023.232 465.828l-39.962-144.044a40.994 40.994 0 0 0-12.14-19.59c-38.974 93.072-130.916 158.47-238.126 158.47-98.628 0-184.278-55.342-227.714-136.638v167.876h498.124c13.604 0 23.46-12.964 19.818-26.074z" fill="#037CFF" p-id="10124"></path><path d="M898.808 291.63H748.04c-19.084 0-34.554 15.47-34.554 34.554 0 19.084 15.47 34.554 34.554 34.554h150.768c19.084 0 34.554-15.47 34.554-34.554 0-19.084-15.472-34.554-34.554-34.554zM236.566 291.63H131.164c-19.084 0-34.554 15.47-34.554 34.554 0 19.084 15.47 34.554 34.554 34.554h105.402c19.084 0 34.554-15.47 34.554-34.554 0-19.084-15.47-34.554-34.554-34.554z" fill="#48ACFF" p-id="10125"></path><path d="M830.196 291.63h-35.714c-19.084 0-34.554 15.47-34.554 34.554 0 19.084 15.47 34.554 34.554 34.554h35.714c19.084 0 34.554-15.47 34.554-34.554 0-19.084-15.47-34.554-34.554-34.554z" fill="#7CBAF7" p-id="10126"></path><path d="M259.852 291.63H92.716c-19.084 0-34.554 15.47-34.554 34.554 0 19.084 15.47 34.554 34.554 34.554h167.134c19.084 0 34.554-15.47 34.554-34.554 0-19.084-15.47-34.554-34.552-34.554z" fill="#48ACFF" p-id="10127"></path><path d="M184.362 291.63h-35.3c-19.084 0-34.554 15.47-34.554 34.554 0 19.084 15.47 34.554 34.554 34.554h35.3c19.084 0 34.554-15.47 34.554-34.554 0-19.084-15.47-34.554-34.554-34.554z" fill="#7CBAF7" p-id="10128"></path><path d="M348.82 333.336h326.362v612.446H348.82z" fill="#E8E4D8" p-id="10129"></path><path d="M412.816 590.752V444.94c0-17.672-14.326-31.998-31.998-31.998s-31.998 14.326-31.998 31.998v145.812c0 17.672 14.326 31.998 31.998 31.998s31.998-14.326 31.998-31.998z" fill="#F1EEE0" p-id="10130"></path><path d="M412.816 517.17v-29.472c0-17.672-14.326-31.998-31.998-31.998s-31.998 14.326-31.998 31.998v29.472c0 17.672 14.326 31.998 31.998 31.998s31.998-14.326 31.998-31.998z" fill="#F9F8F2" p-id="10131"></path><path d="M348.82 333.336h326.362v49.774H348.82zM348.82 861.396h326.362v84.386H348.82z" fill="#D8D4C9" p-id="10132"></path><path d="M675.182 333.33v612.454H348.818V664.302c23.356 8.374 48.522 12.922 74.738 12.922 122.458 0 221.746-99.266 221.746-221.724 0-45.148-13.478-87.146-36.67-122.17z" fill="#D8D4C9" p-id="10133"></path><path d="M348.82 738.096h326.362v207.686H348.82z" fill="#7CBAF7" p-id="10134"></path><path d="M675.182 738.092v207.69H456.316c80.624-23.5 139.496-97.95 139.496-186.146 0-7.284-0.412-14.466-1.214-21.544z" fill="#48ACFF" p-id="10135"></path><path d="M675.182 738.092v207.69h-154.97c80.624-23.5 139.496-97.95 139.496-186.146 0-7.284-0.412-14.466-1.214-21.544z" fill="#229BFF" p-id="10136"></path><path d="M675.956 320.466c-2.378-88.538-74.844-159.594-163.956-159.594s-161.578 71.056-163.956 159.594z" fill="#B5B1A4" p-id="10137"></path><path d="M675.962 320.468H475.516c71.774 0 130.874-54.326 138.384-124.104 36.774 29.2 60.704 73.834 62.062 124.104z" fill="#8F8B81" p-id="10138"></path><path d="M673.5 358.692h-323c-14.004 0-25.356-11.352-25.356-25.356 0-14.004 11.352-25.356 25.356-25.356h323c14.004 0 25.356 11.352 25.356 25.356 0 14.004-11.352 25.356-25.356 25.356z" fill="#FFC751" p-id="10139"></path><path d="M574.688 307.98H394.42c-14.004 0-25.356 11.352-25.356 25.356 0 14.004 11.352 25.356 25.356 25.356h180.268c14.004 0 25.356-11.352 25.356-25.356 0-14.004-11.352-25.356-25.356-25.356z" fill="#FFE059" p-id="10140"></path><path d="M520.704 307.98H433.2c-14.004 0-25.356 11.352-25.356 25.356 0 14.004 11.352 25.356 25.356 25.356h87.504c14.004 0 25.356-11.352 25.356-25.356 0-14.004-11.352-25.356-25.356-25.356z" fill="#FFF370" p-id="10141"></path><path d="M512 463.892m-83.82 0a83.82 83.82 0 1 0 167.64 0 83.82 83.82 0 1 0-167.64 0Z" fill="#595751" p-id="10142"></path><path d="M512 463.892m-51.67 0a51.67 51.67 0 1 0 103.34 0 51.67 51.67 0 1 0-103.34 0Z" fill="#F9F8F2" p-id="10143"></path><path d="M322.042 749.08h53.556v196.704h-53.556zM648.402 749.08h53.556v196.704h-53.556z" fill="#E8E4D8" p-id="10144"></path><path d="M322.042 749.08h53.556v45.694h-53.556zM648.402 749.08h53.556v45.694h-53.556z" fill="#D8D4C9" p-id="10145"></path><path d="M716.714 765.744H313.46c-14.004 0-25.356-11.352-25.356-25.356 0-14.004 11.352-25.356 25.356-25.356h403.254c14.004 0 25.356 11.352 25.356 25.356 0 14.004-11.352 25.356-25.356 25.356z" fill="#FFAF40" p-id="10146"></path><path d="M654.03 715.032H391.438c-14.004 0-25.356 11.352-25.356 25.356 0 14.004 11.352 25.356 25.356 25.356h262.594c14.004 0 25.356-11.352 25.356-25.356-0.002-14.004-11.354-25.356-25.358-25.356z" fill="#FFC751" p-id="10147"></path><path d="M540.392 715.032h-91.48c-14.004 0-25.356 11.352-25.356 25.356 0 14.004 11.352 25.356 25.356 25.356h91.48c14.004 0 25.356-11.352 25.356-25.356 0-14.004-11.352-25.356-25.356-25.356z" fill="#FFE059" p-id="10148"></path><path d="M812.556 576.328h-86.888c-15.166 0-27.46-12.294-27.46-27.46s12.294-27.46 27.46-27.46h86.888c15.166 0 27.46 12.294 27.46 27.46s-12.294 27.46-27.46 27.46z" fill="#CBE1FF" p-id="10149"></path><path d="M778.128 521.41h-17.668c-15.166 0-27.46 12.294-27.46 27.46s12.294 27.46 27.46 27.46h17.668c15.166 0 27.46-12.294 27.46-27.46-0.002-15.166-12.296-27.46-27.46-27.46z" fill="#E3F0FF" p-id="10150"></path><path d="M256.964 576.328H170.076c-15.166 0-27.46-12.294-27.46-27.46s12.294-27.46 27.46-27.46h86.888c15.166 0 27.46 12.294 27.46 27.46s-12.294 27.46-27.46 27.46z" fill="#CBE1FF" p-id="10151"></path><path d="M222.534 521.41h-17.668c-15.166 0-27.46 12.294-27.46 27.46s12.294 27.46 27.46 27.46h17.668c15.166 0 27.46-12.294 27.46-27.46s-12.294-27.46-27.46-27.46z" fill="#E3F0FF" p-id="10152"></path><path d="M256.964 743.734H170.076c-15.166 0-27.46-12.294-27.46-27.46s12.294-27.46 27.46-27.46h86.888c15.166 0 27.46 12.294 27.46 27.46s-12.294 27.46-27.46 27.46z" fill="#CBE1FF" p-id="10153"></path><path d="M222.534 688.816h-17.668c-15.166 0-27.46 12.294-27.46 27.46s12.294 27.46 27.46 27.46h17.668c15.166 0 27.46-12.294 27.46-27.46s-12.294-27.46-27.46-27.46z" fill="#E3F0FF" p-id="10154"></path><path d="M534.93 471.094h-19.754a10.378 10.378 0 0 1-10.378-10.378V429.04c0-3.438 2.33-6.56 5.7-7.24a7.212 7.212 0 0 1 8.706 7.05v27.84h15.918a7.21 7.21 0 0 1 7.05 8.706c-0.684 3.368-3.806 5.698-7.242 5.698z" fill="#FFC751" p-id="10155"></path><path d="M471.882 518.682l0.22-0.236c5.556-5.95 5.636-15.044 0.386-21.266a51.424 51.424 0 0 1-12.158-33.286c0-22.906 14.898-42.324 35.534-49.098 6.328-2.078 10.754-7.78 10.754-14.442 0-11.264-11.042-19.416-21.702-15.782-33 11.254-56.726 42.504-56.726 79.322a83.4 83.4 0 0 0 20.03 54.344c6.14 7.194 17.208 7.36 23.662 0.444z" fill="#706C64" p-id="10156"></path><path d="M462.43 449.274a51.514 51.514 0 0 1 9.964-18.552c4.656-5.548 5.322-13.446 1.214-19.412l-0.21-0.306c-5.926-8.626-18.41-9.396-25.198-1.43a83.536 83.536 0 0 0-16.584 30.638c-2.998 10.21 4.578 20.46 15.22 20.46h0.376a15.872 15.872 0 0 0 15.218-11.398z" fill="#8F8B81" p-id="10157"></path><path d="M512 160.868c-58.28 0-109.402 30.4-138.486 76.196-8.338 13.13-3.186 30.636 10.728 37.592l0.49 0.244c12.198 6.098 27.046 1.96 34.282-9.598 19.38-30.956 53.762-51.55 92.986-51.55 12.18 0 23.888 1.994 34.828 5.666 11.866 3.982 24.88-1.12 31.042-12.014l0.262-0.462c8.066-14.272 1.202-32.516-14.348-37.702A163.414 163.414 0 0 0 512 160.868z" fill="#D8D4C9" p-id="10158"></path><path d="M407.848 237.35l0.396 0.358c9.602 8.71 24.186 9.192 34.198 0.958a109.266 109.266 0 0 1 40.74-21.074c11.354-3.086 19.124-13.554 19.124-25.32v-0.292c0-17.206-16.278-29.972-32.896-25.512a163.32 163.32 0 0 0-60.556 30.94c-12.524 10.158-12.954 29.112-1.006 39.942z" fill="#E8E4D8" p-id="10159"></path></svg>